<svg width="1026" height="188" viewBox="0 0 1026 188" fill="none" xmlns="http://www.w3.org/2000/svg">
<path fill-rule="evenodd" clip-rule="evenodd" d="M298.342 144.5C297.574 144.217 296.925 143.717 296.396 143C297.531 142.5 298.342 141.667 298.829 140.5C298.554 136.034 299.527 131.701 301.749 127.5C301.961 85.8225 302.448 44.1559 303.209 2.5C269.464 2.33335 235.72 2.50002 201.977 3C201.436 3.38258 201.112 3.88258 201.004 4.5C198.882 3.8829 196.935 2.8829 195.164 1.5C231.497 0.500112 267.837 0.166772 304.183 0.500002C304.345 42.168 304.183 83.8347 303.696 125.5C302.659 132.1 300.875 138.434 298.342 144.5Z" fill="#343548"/>
<path fill-rule="evenodd" clip-rule="evenodd" d="M138.707 3.5C137.267 1.39695 136.131 1.39695 135.301 3.5C134.928 2.94404 134.441 2.61071 133.84 2.5C89.3191 2.1721 44.8679 2.50544 0.486816 3.5C0.486816 2.5 0.486816 1.5 0.486816 0.499996C48.1837 0.333336 95.8795 0.500006 143.574 0.999996C143.898 1.33333 144.224 1.66667 144.548 2C142.752 3.12799 140.805 3.62799 138.707 3.5Z" fill="#36374C"/>
<path fill-rule="evenodd" clip-rule="evenodd" d="M298.342 144.5C295.294 151.475 291.237 157.808 286.175 163.5C285.522 164.252 284.711 164.586 283.741 164.5C281.047 166.087 278.451 167.92 275.954 170C274.364 170.494 272.741 170.66 271.087 170.5C271.087 171.5 271.087 172.5 271.087 173.5C269.129 172.986 267.182 172.82 265.247 173C267.175 173.605 267.501 174.605 266.221 176C243.53 184.548 220.169 186.881 196.137 183C186.813 180.862 177.727 178.028 168.882 174.5C148.459 164.861 138.076 148.527 137.734 125.5C140.012 124.428 140.336 122.761 138.707 120.5C136.19 119.52 133.594 119.187 130.92 119.5C132.421 118.859 133.72 117.859 134.814 116.5C133.663 114.239 132.041 112.405 129.947 111C134.064 110.355 137.958 109.855 141.627 109.5C138.181 107.346 134.936 105.013 131.894 102.5C135.394 103.199 138.801 104.199 142.114 105.5C142.566 104.906 142.728 104.239 142.601 103.5C157.756 107.302 172.681 111.636 187.376 116.5C187.758 118.179 188.245 119.846 188.837 121.5C189.486 122.833 190.134 122.833 190.783 121.5C191.099 123.569 191.91 123.902 193.217 122.5C195.574 123.904 196.224 125.737 195.164 128C197.713 130.641 199.497 133.807 200.517 137.5C210.451 145.141 221.645 147.975 234.099 146C236.139 145.263 237.762 144.097 238.966 142.5C247.296 139.441 252.325 133.441 254.053 124.5C254.494 107.573 247.843 94.4067 234.099 85C223.762 78.7883 212.73 74.1216 201.004 71C186.727 67.6667 172.452 64.3333 158.175 61C152.38 59.4468 147.676 56.2801 144.061 51.5C143.745 40.9668 148.775 34.6334 159.148 32.5C159.021 33.2389 159.183 33.9056 159.635 34.5C163.485 34.3705 167.541 34.3705 171.802 34.5C171.802 35.5 171.802 36.5 171.802 37.5C172.826 37.3505 173.8 37.5172 174.722 38C172.437 38.3459 170.653 39.5125 169.369 41.5C166.452 41.1335 163.207 40.8002 159.635 40.5C157.349 40.2582 155.564 41.0916 154.281 43C155.173 43.3742 155.985 43.8742 156.715 44.5C160.608 44.5 164.502 44.5 168.395 44.5C169.924 43.6422 171.546 42.9755 173.262 42.5C175.086 43.8677 176.708 45.5343 178.129 47.5C179.332 45.6928 179.657 43.6928 179.103 41.5C179.427 41.8333 179.752 42.1667 180.076 42.5C182.02 38.9177 184.291 38.9177 186.89 42.5C189.264 46.6087 192.022 50.442 195.164 54C213.331 54.4999 231.5 54.6666 249.673 54.5C249.857 49.8386 249.208 45.3386 247.726 41C248.736 39.1492 248.086 37.9825 245.779 37.5C236.206 19.214 221.281 8.21396 201.004 4.49999C201.112 3.88257 201.436 3.38257 201.977 2.99999C235.72 2.50001 269.464 2.33334 303.209 2.49999C302.448 44.1559 301.961 85.8225 301.749 127.5C299.527 131.701 298.553 136.034 298.829 140.5C298.342 141.667 297.531 142.5 296.395 143C296.925 143.717 297.574 144.217 298.342 144.5Z" fill="#191E3C"/>
<path fill-rule="evenodd" clip-rule="evenodd" d="M133.84 2.5C129.312 4.37676 124.77 6.37676 120.213 8.5C119.642 8.29069 119.156 7.95735 118.753 7.5C116.005 10.2492 112.761 12.2492 109.019 13.5C108.695 13.1667 108.37 12.8333 108.046 12.5C77.4536 13.3294 46.792 13.8294 16.0607 14C41.3687 14.3333 66.6767 14.6667 91.9847 15C92.5407 16.2051 93.1896 17.3717 93.9315 18.5C95.5538 17.6667 97.176 16.8333 98.7984 16C97.5009 15.6667 96.2027 15.3333 94.9048 15C97.3996 14.0819 99.5089 14.5819 101.232 16.5C101.532 15.6919 102.018 15.0253 102.692 14.5C103.592 15.6405 104.404 15.6405 105.125 14.5C99.2218 22.3081 94.3551 30.9747 90.5246 40.5C88.2542 50.0053 88.7409 59.3386 91.9847 68.5C91.4734 69.1924 90.8245 69.6924 90.0379 70C92.4378 73.6589 94.709 77.4923 96.8516 81.5C95.9989 82.2508 95.0255 82.7508 93.9315 83C96.9002 83.679 99.8204 84.5123 102.692 85.5C103.832 87.8422 104.968 90.1756 106.099 92.5C107.12 91.4829 108.256 91.3162 109.506 92C112.224 93.8885 114.171 96.3885 115.346 99.5C116.019 98.9747 116.506 98.3081 116.806 97.5C117.893 98.9494 118.542 100.616 118.753 102.5C120.889 101.405 122.999 100.405 125.08 99.5C127.529 100.33 129.801 101.33 131.893 102.5C134.936 105.013 138.181 107.346 141.627 109.5C137.958 109.855 134.064 110.355 129.947 111C132.04 112.405 133.663 114.239 134.814 116.5C133.719 117.859 132.421 118.859 130.92 119.5C115.018 119.333 99.1196 119.5 83.2242 120C84.4288 120.232 85.4022 120.732 86.1444 121.5C85.8426 122.738 85.3559 122.738 84.6843 121.5C83.628 129.75 84.4392 137.75 87.1178 145.5C86.5105 145.917 86.1859 146.584 86.1444 147.5C87.0095 150.279 88.1452 152.945 89.5512 155.5C92.6772 160.32 95.9219 164.987 99.2851 169.5C102.066 169.102 104.175 170.435 105.612 173.5C115.073 177.685 124.807 181.185 134.814 184C128 184.333 121.186 184.667 114.373 185C114.914 185.383 115.238 185.883 115.346 186.5C93.2825 186.5 71.2192 186.5 49.1558 186.5C51.5587 185.683 54.1544 185.183 56.9429 185C52.412 184.501 47.8695 184.334 43.3155 184.5C43.9589 143.486 43.3099 102.82 41.3687 62.5C41.3687 61.5 41.3687 60.5 41.3687 59.5C27.8267 59.8233 14.3616 59.4899 0.97328 58.5C0.486641 40.1697 0.32441 21.8364 0.486588 3.5C44.8676 2.50544 89.3189 2.1721 133.84 2.5Z" fill="#191E3D"/>
<path fill-rule="evenodd" clip-rule="evenodd" d="M159.148 32.5C176.092 30.7014 188.422 37.5348 196.137 53C213.331 53.4999 230.526 53.6666 247.726 53.5C247.973 48.0305 247.324 42.6972 245.779 37.5C248.086 37.9825 248.736 39.1492 247.726 41C249.208 45.3386 249.857 49.8386 249.673 54.5C231.5 54.6666 213.331 54.4999 195.163 54C192.022 50.442 189.264 46.6087 186.89 42.5C184.291 38.9177 182.02 38.9177 180.076 42.5C179.752 42.1667 179.427 41.8333 179.103 41.5C179.657 43.6928 179.332 45.6928 178.129 47.5C176.708 45.5343 175.085 43.8677 173.262 42.5C171.546 42.9755 169.924 43.6422 168.395 44.5C164.502 44.5 160.608 44.5 156.715 44.5C155.985 43.8742 155.173 43.3742 154.281 43C155.564 41.0916 157.349 40.2582 159.635 40.5C163.207 40.8002 166.451 41.1335 169.369 41.5C170.653 39.5125 172.437 38.3459 174.722 38C173.8 37.5172 172.826 37.3505 171.802 37.5C171.802 36.5 171.802 35.5 171.802 34.5C167.541 34.3705 163.485 34.3705 159.635 34.5C159.183 33.9056 159.021 33.2389 159.148 32.5Z" fill="#23253D"/>
<path fill-rule="evenodd" clip-rule="evenodd" d="M414.175 49.5C416.446 49.5 418.718 49.5 420.988 49.5C419.659 55.1858 416.089 57.8524 410.281 57.5C411.112 54.632 412.409 51.9653 414.175 49.5Z" fill="#1A1A1A"/>
<path fill-rule="evenodd" clip-rule="evenodd" d="M564.076 56.5C578.385 56.8615 583.414 64.1948 579.163 78.5C578.028 81.6667 575.919 83.8333 572.836 85C568.943 85.6667 565.049 85.6667 561.156 85C557.588 83.332 555.479 80.4987 554.829 76.5C553.057 83.214 548.352 86.214 540.715 85.5C538.516 85.4677 536.408 85.1344 534.388 84.5C534.21 76.2547 533.723 68.088 532.928 60C533.373 59.586 533.698 59.086 533.901 58.5C539.175 57.1026 544.366 57.2693 549.475 59C552.913 62.3899 553.238 66.0566 550.449 70C552.161 71.008 553.297 72.508 553.855 74.5C553.083 65.7257 556.489 59.7257 564.076 56.5ZM540.715 63.5C542.012 63.5 543.311 63.5 544.608 63.5C544.608 64.8333 544.608 66.1667 544.608 67.5C543.311 67.5 542.012 67.5 540.715 67.5C540.715 66.1667 540.715 64.8333 540.715 63.5ZM565.049 63.5C568.633 62.7253 571.067 64.0586 572.35 67.5C573.254 71.2441 572.767 74.7441 570.89 78C567.756 80.0452 564.999 79.5452 562.616 76.5C561.392 71.6169 562.203 67.2835 565.049 63.5ZM540.715 73.5C548.502 75.5 548.502 77.5 540.715 79.5C540.715 77.5 540.715 75.5 540.715 73.5Z" fill="#171717"/>
<path fill-rule="evenodd" clip-rule="evenodd" d="M339.224 57.5C343.779 57.3342 348.321 57.5008 352.852 58C357.45 60.4353 358.91 64.2686 357.232 69.5C356.301 70.5786 355.49 71.7453 354.798 73C357.604 76.7017 358.902 80.7017 358.692 85C356.745 85.6667 354.798 85.6667 352.852 85C351.121 81.2814 349.012 77.7814 346.525 74.5C346.2 77.8333 345.875 81.1667 345.551 84.5C343.28 85.8333 341.008 85.8333 338.738 84.5C337.955 75.4221 338.117 66.4221 339.224 57.5ZM346.038 63.5C351.67 63.7286 352.157 65.3952 347.498 68.5C347.011 68.3333 346.525 68.1667 346.038 68C346.492 66.7012 346.492 65.2012 346.038 63.5Z" fill="#171718"/>
<path fill-rule="evenodd" clip-rule="evenodd" d="M402.494 57.5C404.765 57.5 407.037 57.5 409.308 57.5C409.146 63.8421 409.308 70.1754 409.795 76.5C411.515 79.636 413.623 80.3027 416.122 78.5C416.853 77.624 417.339 76.624 417.582 75.5C418.067 69.5092 418.23 63.5092 418.068 57.5C420.339 57.5 422.611 57.5 424.882 57.5C425.272 65.5852 424.786 73.5852 423.422 81.5C420.953 84.7663 417.709 86.0996 413.688 85.5C408.699 86.1051 405.13 84.1051 402.981 79.5C402.494 72.1742 402.333 64.8409 402.494 57.5Z" fill="#161616"/>
<path fill-rule="evenodd" clip-rule="evenodd" d="M795.741 61.5C799.791 68.3775 799.466 75.0442 794.768 81.5C793.021 83.7025 790.749 84.8692 787.954 85C784.061 85.6667 780.167 85.6667 776.274 85C775.315 75.9172 774.991 66.7506 775.3 57.5C780.502 57.334 785.693 57.5006 790.875 58C792.649 58.9973 794.272 60.1639 795.741 61.5ZM782.114 63.5C787.374 63.1931 790.294 65.6931 790.875 71C790.753 76.9585 787.833 79.4585 782.114 78.5C782.114 73.5 782.114 68.5 782.114 63.5Z" fill="#141414"/>
<path fill-rule="evenodd" clip-rule="evenodd" d="M870.692 84.5C865.013 85.8125 859.336 85.8125 853.658 84.5C853.009 75.8333 853.009 67.1667 853.658 58.5C858.93 57.3611 864.283 57.1944 869.719 58C871.016 59.6667 871.016 61.3333 869.719 63C866.816 63.498 863.896 63.6646 860.958 63.5C860.958 64.8333 860.958 66.1667 860.958 67.5C863.554 67.5 866.149 67.5 868.745 67.5C868.745 69.5 868.745 71.5 868.745 73.5C866.149 73.5 863.554 73.5 860.958 73.5C860.801 75.5273 860.963 77.5273 861.445 79.5C861.769 79.1667 862.094 78.8333 862.418 78.5C864.759 79.2744 867.193 79.7744 869.719 80C870.575 81.3561 870.9 82.8561 870.692 84.5Z" fill="#171718"/>
<path fill-rule="evenodd" clip-rule="evenodd" d="M676.015 60.5C677.313 61.1667 677.313 61.1667 676.015 60.5Z" fill="black"/>
<path fill-rule="evenodd" clip-rule="evenodd" d="M679.909 57.5C682.18 57.5 684.451 57.5 686.722 57.5C686.884 66.5062 686.722 75.5062 686.236 84.5C684.249 85.4231 682.14 85.7564 679.909 85.5C679.909 76.1667 679.909 66.8333 679.909 57.5Z" fill="#151515"/>
<path fill-rule="evenodd" clip-rule="evenodd" d="M795.741 60.5C797.039 61.1667 797.039 61.1667 795.741 60.5Z" fill="black"/>
<path fill-rule="evenodd" clip-rule="evenodd" d="M467.711 57.5C470.26 57.2317 472.694 57.565 475.011 58.5C475.806 67.4117 475.644 76.245 474.525 85C472.316 85.7581 470.207 85.5914 468.198 84.5C467.711 75.5062 467.549 66.5062 467.711 57.5Z" fill="#171717"/>
<path fill-rule="evenodd" clip-rule="evenodd" d="M714.951 57.5C717.941 57.1826 720.861 57.5159 723.711 58.5C726.068 62.3403 728.177 66.3403 730.038 70.5C730.885 69.8921 731.372 69.0588 731.498 68C731.095 64.7472 731.095 61.5805 731.498 58.5C733.344 57.5344 735.291 57.2011 737.339 57.5C737.031 65.7524 737.356 73.919 738.312 82C736.678 85.297 734.082 86.297 730.525 85C727.153 80.5777 724.395 75.7443 722.251 70.5C721.927 75.1667 721.602 79.8333 721.278 84.5C719.291 85.4231 717.182 85.7564 714.951 85.5C714.951 76.1667 714.951 66.8333 714.951 57.5Z" fill="#161616"/>
<path fill-rule="evenodd" clip-rule="evenodd" d="M603.011 56.5C604.187 57.2341 605.485 57.5674 606.905 57.5C606.697 59.1439 607.022 60.6439 607.878 62C607.084 69.4205 606.597 76.9205 606.418 84.5C604.432 85.4231 602.322 85.7564 600.091 85.5C600.091 76.1667 600.091 66.8333 600.091 57.5C601.348 57.7373 602.321 57.404 603.011 56.5Z" fill="#171617"/>
<path fill-rule="evenodd" clip-rule="evenodd" d="M361.612 57.5C366.814 57.334 372.005 57.5006 377.186 58C378.484 59.6667 378.484 61.3333 377.186 63C374.284 63.498 371.364 63.6646 368.426 63.5C368.426 64.8333 368.426 66.1667 368.426 67.5C371.022 67.5 373.617 67.5 376.213 67.5C376.213 69.5 376.213 71.5 376.213 73.5C373.617 73.5 371.022 73.5 368.426 73.5C368.426 75.5 368.426 77.5 368.426 79.5C371.67 79.5 374.916 79.5 378.16 79.5C378.392 81.4672 378.068 83.3005 377.186 85C371.965 85.8295 366.773 85.6628 361.612 84.5C360.979 76.9693 360.329 69.4693 359.666 62C360.719 60.6703 361.368 59.1703 361.612 57.5Z" fill="#161616"/>
<path fill-rule="evenodd" clip-rule="evenodd" d="M382.053 57.5C387.434 56.9999 392.626 57.6666 397.627 59.5C403.09 70.2972 399.846 75.9638 387.894 76.5C388.053 79.1873 387.891 81.854 387.407 84.5C385.46 85.8333 383.513 85.8333 381.567 84.5C380.784 75.4221 380.947 66.4221 382.053 57.5ZM387.894 63.5C391.959 62.8416 393.42 64.5082 392.274 68.5C391.218 69.2931 390.082 69.9598 388.867 70.5C387.919 68.2573 387.594 65.924 387.894 63.5Z" fill="#161617"/>
<path fill-rule="evenodd" clip-rule="evenodd" d="M428.775 57.5C433.33 57.3342 437.872 57.5008 442.403 58C447.455 60.9491 448.428 64.9491 445.323 70C449.532 74.207 449.857 78.5403 446.296 83C440.433 85.5915 434.431 86.0915 428.289 84.5C427.506 75.4221 427.669 66.4221 428.775 57.5ZM435.589 63.5C438.509 63.1667 439.807 64.5 439.483 67.5C437.829 67.6602 436.206 67.4935 434.616 67C435.431 65.9887 435.755 64.8221 435.589 63.5ZM435.589 73.5C439.678 73.4258 440.977 75.2591 439.483 79C438.224 79.49 436.926 79.6567 435.589 79.5C435.589 77.5 435.589 75.5 435.589 73.5Z" fill="#161616"/>
<path fill-rule="evenodd" clip-rule="evenodd" d="M676.015 61.5C677.252 65.7003 676.279 69.3669 673.095 72.5C675.417 76.2517 676.877 80.2517 677.475 84.5C675.466 85.5914 673.357 85.7581 671.148 85C669.967 81.8057 668.345 78.9724 666.281 76.5C666.006 75.7109 665.519 75.0442 664.821 74.5C664.62 78.0894 664.133 81.5894 663.361 85C661.153 85.7581 659.043 85.5914 657.034 84.5C656.385 75.8333 656.385 67.1667 657.034 58.5C661.981 57.363 667.011 57.1963 672.122 58C673.608 59.0319 674.906 60.1986 676.015 61.5ZM664.335 63.5C668.4 62.8307 669.697 64.3307 668.228 68C666.97 68.49 665.671 68.6567 664.335 68.5C664.335 66.8333 664.335 65.1667 664.335 63.5Z" fill="#161617"/>
<path fill-rule="evenodd" clip-rule="evenodd" d="M639.027 57.5C641.642 57.3359 644.238 57.5026 646.814 58C650.848 66.7491 653.444 75.7491 654.601 85C649.47 86.856 646.874 85.0226 646.814 79.5C643.893 79.5 640.973 79.5 638.053 79.5C638.008 84.8616 635.412 86.8616 630.266 85.5C632.408 75.8999 635.328 66.5665 639.027 57.5ZM641.947 66.5C642.996 68.5394 643.969 70.706 644.867 73C643.608 73.49 642.31 73.6567 640.973 73.5C641.453 71.1944 641.777 68.861 641.947 66.5Z" fill="#171717"/>
<path fill-rule="evenodd" clip-rule="evenodd" d="M610.799 56.5C612.3 57.3007 613.921 57.634 615.665 57.5C617.148 63.572 618.933 69.572 621.019 75.5C622.511 69.735 624.296 64.0683 626.373 58.5C627.471 57.7379 628.607 57.0712 629.78 56.5C630.764 57.3366 631.9 57.67 633.186 57.5C630.73 66.5733 627.972 75.5733 624.913 84.5C621.992 85.8333 619.072 85.8333 616.152 84.5C613.101 75.595 610.343 66.595 607.878 57.5C609.135 57.7373 610.108 57.404 610.799 56.5Z" fill="#161616"/>
<path fill-rule="evenodd" clip-rule="evenodd" d="M873.612 57.5C876.228 57.3359 878.824 57.5026 881.399 58C883.709 62.5806 886.142 67.0806 888.699 71.5C889.185 66.8452 889.348 62.1785 889.186 57.5C891.417 57.2436 893.527 57.5769 895.513 58.5C896.296 67.2151 896.133 75.8818 895.026 84.5C892.822 85.6474 890.551 85.8141 888.213 85C884.841 80.5777 882.083 75.7443 879.939 70.5C879.615 75.1667 879.29 79.8333 878.966 84.5C876.979 85.4231 874.87 85.7564 872.639 85.5C872.342 76.0833 872.666 66.75 873.612 57.5Z" fill="#171717"/>
<path fill-rule="evenodd" clip-rule="evenodd" d="M965.11 57.5C970.627 57.5 976.139 57.5 981.658 57.5C981.658 59.5 981.658 61.5 981.658 63.5C978.417 63.5 975.165 63.5 971.924 63.5C971.924 64.8333 971.924 66.1667 971.924 67.5C974.601 67.1866 977.19 67.52 979.711 68.5C980.928 70.0421 980.928 71.5421 979.711 73C977.132 73.4974 974.542 73.6641 971.924 73.5C971.924 75.5 971.924 77.5 971.924 79.5C975.165 79.5 978.417 79.5 981.658 79.5C981.658 81.5 981.658 83.5 981.658 85.5C976.217 85.8066 970.86 85.4732 965.597 84.5C965.11 75.5062 964.949 66.5062 965.11 57.5Z" fill="#161616"/>
<path fill-rule="evenodd" clip-rule="evenodd" d="M847.331 56.5C848.507 57.2341 849.804 57.5674 851.224 57.5C849.522 66.8253 846.764 75.8253 842.951 84.5C840.614 85.6023 838.18 85.769 835.65 85C832.033 76.5236 828.788 67.857 825.917 59C828.365 57.2871 830.961 57.1205 833.704 58.5C835.781 64.0683 837.565 69.735 839.057 75.5C840.876 70.2276 842.498 64.8943 843.924 59.5C844.883 58.1859 846.019 57.1859 847.331 56.5Z" fill="#151515"/>
<path fill-rule="evenodd" clip-rule="evenodd" d="M666.281 76.5C665.632 77.1667 665.632 77.1667 666.281 76.5Z" fill="black"/>
<path fill-rule="evenodd" clip-rule="evenodd" d="M699.377 56.5C701.179 57.0889 702.963 57.7556 704.73 58.5C708.446 67.1131 711.204 75.7797 713.004 84.5C708.629 86.365 705.708 85.0316 704.243 80.5C701.707 79.3483 699.111 79.1816 696.456 80C695.44 84.9025 692.682 86.4025 688.183 84.5C690.021 76.8225 692.293 69.1558 694.996 61.5C695.717 59.0297 697.177 57.363 699.377 56.5ZM699.377 68.5C701.017 69.1837 701.99 70.517 702.297 72.5C700.999 73.8333 699.701 73.8333 698.403 72.5C699.129 71.2638 699.453 69.9305 699.377 68.5Z" fill="#151515"/>
<path fill-rule="evenodd" clip-rule="evenodd" d="M917.415 57.5C923.579 57.5 929.745 57.5 935.909 57.5C936.068 59.8568 935.906 62.1902 935.422 64.5C932.473 68.6983 929.715 73.0316 927.149 77.5C929.709 79.0264 932.305 79.5264 934.936 79C936.712 80.4659 937.199 82.2992 936.396 84.5C930.231 85.8333 924.066 85.8333 917.901 84.5C917.252 82.5 917.252 80.5 917.901 78.5C920.862 73.5812 923.945 68.7478 927.149 64C924.228 63.6667 921.308 63.3333 918.388 63C917.506 61.3005 917.182 59.4672 917.415 57.5Z" fill="#151516"/>
<path fill-rule="evenodd" clip-rule="evenodd" d="M748.046 57.5C750.915 57.2229 753.673 57.5562 756.319 58.5C758.982 66.8705 761.739 75.2039 764.593 83.5C764.39 84.086 764.065 84.586 763.62 85C758.489 86.856 755.893 85.0226 755.833 79.5C752.913 79.5 749.992 79.5 747.072 79.5C747.027 84.8616 744.431 86.8616 739.285 85.5C741.035 75.774 743.955 66.4406 748.046 57.5ZM750.966 66.5C751.714 68.6674 752.688 70.834 753.886 73C752.263 73.6667 750.642 73.6667 749.019 73C749.668 72.3333 750.317 71.6667 750.966 71C750.512 69.7012 750.512 68.2012 750.966 66.5Z" fill="#151515"/>
<path fill-rule="evenodd" clip-rule="evenodd" d="M800.608 57.5C806.125 57.5 811.64 57.5 817.156 57.5C817.156 59.5 817.156 61.5 817.156 63.5C813.912 63.5 810.666 63.5 807.422 63.5C807.422 64.8333 807.422 66.1667 807.422 67.5C810.038 67.3359 812.634 67.5026 815.209 68C816.507 69.6667 816.507 71.3333 815.209 73C812.634 73.4974 810.038 73.6641 807.422 73.5C807.422 75.5 807.422 77.5 807.422 79.5C810.666 79.5 813.912 79.5 817.156 79.5C817.389 81.4672 817.064 83.3005 816.183 85C811.071 85.8037 806.042 85.637 801.095 84.5C800.608 75.5062 800.447 66.5062 800.608 57.5Z" fill="#151515"/>
<path fill-rule="evenodd" clip-rule="evenodd" d="M940.776 56.5C942.401 56.7512 943.861 57.4178 945.156 58.5C945.48 64.8333 945.805 71.1667 946.129 77.5C950.188 80.6647 952.785 79.6647 953.917 74.5C954.339 69.0426 954.177 64.2093 953.43 60C955.497 57.0116 958.093 56.1782 961.217 57.5C961.379 64.5079 961.217 71.5079 960.73 78.5C958.929 84.0117 955.198 86.345 949.536 85.5C943.337 86.4035 939.605 83.7369 938.342 77.5C937.693 71.1667 937.693 64.8333 938.342 58.5C939.311 57.9341 940.122 57.2674 940.776 56.5Z" fill="#161616"/>
<path fill-rule="evenodd" clip-rule="evenodd" d="M986.525 56.5C988.102 57.038 989.717 57.3713 991.392 57.5C991.392 64.5 991.392 71.5 991.392 78.5C994.263 78.2229 997.018 78.5562 999.665 79.5C1002.78 72.3922 1005.21 65.0589 1006.97 57.5C1010.14 56.3603 1013.22 56.6936 1016.21 58.5C1018.76 67.0738 1021.85 75.4072 1025.46 83.5C1025.26 84.086 1024.93 84.586 1024.49 85C1019.07 86.9861 1016.15 85.1527 1015.73 79.5C1012.81 79.5 1009.89 79.5 1006.97 79.5C1006.99 81.5824 1006.34 83.4157 1005.02 85C998.526 85.6667 992.044 85.6667 985.551 85C985.065 84.5 984.578 84 984.091 83.5C983.439 75.1667 983.439 66.8333 984.091 58.5C985.055 57.9341 985.872 57.2674 986.525 56.5ZM1010.86 66.5C1011.91 68.5394 1012.88 70.706 1013.78 73C1012.52 73.49 1011.22 73.6567 1009.89 73.5C1010.36 71.1944 1010.69 68.861 1010.86 66.5Z" fill="#151516"/>
<path fill-rule="evenodd" clip-rule="evenodd" d="M454.084 56.5C455.26 57.2341 456.557 57.5674 457.977 57.5C457.977 64.5 457.977 71.5 457.977 78.5C460.653 78.2739 463.249 78.6072 465.764 79.5C466.991 81.3529 466.991 83.1862 465.764 85C463.331 85.1667 460.897 85.3333 458.464 85.5C455.592 85.4324 452.996 84.7657 450.677 83.5C450.028 75.1667 450.028 66.8333 450.677 58.5C451.944 57.9152 453.08 57.2485 454.084 56.5Z" fill="#171719"/>
<path fill-rule="evenodd" clip-rule="evenodd" d="M487.179 56.5C491.032 56.0713 494.439 57.0713 497.399 59.5C497.881 61.4727 498.044 63.4727 497.886 65.5C495.425 64.9886 492.992 64.3219 490.586 63.5C486.52 64.6615 484.736 67.4948 485.232 72C484.769 76.1909 486.553 78.6909 490.586 79.5C492.458 78.6839 494.404 78.0172 496.426 77.5C497.346 77.9054 497.995 78.572 498.373 79.5C500.903 72.538 503.336 65.538 505.673 58.5C508.593 57.1667 511.513 57.1667 514.434 58.5C517.546 66.7571 520.466 75.0905 523.194 83.5C522.991 84.086 522.666 84.586 522.221 85C517.09 86.856 514.494 85.0226 514.434 79.5C511.443 79.1826 508.523 79.5159 505.673 80.5C505.502 83.7858 503.879 85.4525 500.806 85.5C494.597 85.7595 488.432 85.2595 482.312 84C476.777 77.1456 475.966 69.6456 479.878 61.5C481.991 59.1769 484.424 57.5103 487.179 56.5ZM509.567 67.5C510.772 69.2143 511.421 71.2143 511.513 73.5C510.177 73.6567 508.879 73.49 507.62 73C508.558 71.2745 509.208 69.4412 509.567 67.5Z" fill="#171717"/>
<path fill-rule="evenodd" clip-rule="evenodd" d="M899.894 57.5C905.095 57.334 910.286 57.5006 915.468 58C916.765 59.6667 916.765 61.3333 915.468 63C912.565 63.498 909.645 63.6646 906.707 63.5C906.707 64.8333 906.707 66.1667 906.707 67.5C909.303 67.5 911.898 67.5 914.494 67.5C914.494 69.5 914.494 71.5 914.494 73.5C911.898 73.5 909.303 73.5 906.707 73.5C906.707 75.5 906.707 77.5 906.707 79.5C909.897 79.2161 912.979 79.5495 915.954 80.5C916.655 82.1124 916.494 83.6124 915.468 85C910.032 85.8056 904.679 85.6389 899.407 84.5C898.624 75.4221 898.787 66.4221 899.894 57.5Z" fill="#141415"/>
<path fill-rule="evenodd" clip-rule="evenodd" d="M138.707 3.49999C123.1 6.60299 109.959 14.2697 99.2854 26.5C85.9265 48.0048 88.0354 67.8381 105.612 86C116.845 94.2697 129.174 100.103 142.601 103.5C142.728 104.239 142.566 104.906 142.114 105.5C138.801 104.199 135.394 103.199 131.894 102.5C129.801 101.33 127.529 100.33 125.08 99.5C122.999 100.405 120.89 101.405 118.753 102.5C118.543 100.616 117.894 98.9494 116.806 97.5C116.506 98.3081 116.02 98.9747 115.346 99.5C114.171 96.3885 112.225 93.8885 109.506 92C108.256 91.3162 107.12 91.4829 106.099 92.5C104.968 90.1756 103.832 87.8422 102.692 85.5C99.8207 84.5123 96.9005 83.679 93.9318 83C95.0258 82.7508 95.9992 82.2508 96.8519 81.5C94.7093 77.4923 92.4381 73.6589 90.0382 70C90.8248 69.6924 91.4737 69.1924 91.985 68.5C88.7412 59.3386 88.2545 50.0053 90.5249 40.5C94.3554 30.9747 99.2221 22.3081 105.126 14.5C104.404 15.6405 103.593 15.6405 102.692 14.5C102.019 15.0253 101.532 15.6919 101.232 16.5C99.5092 14.5819 97.3999 14.0819 94.9051 15C96.203 15.3333 97.5012 15.6667 98.7987 16C97.1763 16.8333 95.5541 17.6667 93.9318 18.5C93.1899 17.3717 92.541 16.2051 91.985 15C66.677 14.6667 41.369 14.3333 16.061 14C46.7923 13.8294 77.4539 13.3294 108.046 12.5C108.37 12.8333 108.695 13.1667 109.019 13.5C112.761 12.2492 116.005 10.2492 118.753 7.49999C119.156 7.95734 119.643 8.29068 120.213 8.49999C124.771 6.37675 129.312 4.37675 133.841 2.49999C134.441 2.6107 134.928 2.94403 135.301 3.49999C136.131 1.39694 137.267 1.39694 138.707 3.49999Z" fill="#202339"/>
<path fill-rule="evenodd" clip-rule="evenodd" d="M586.464 56.5C587.64 57.2341 588.937 57.5674 590.358 57.5C590.358 64.5 590.358 71.5 590.358 78.5C592.973 78.3359 595.569 78.5026 598.145 79C599.442 81 599.442 83 598.145 85C593.357 85.8015 588.652 85.6349 584.031 84.5C583.544 75.5062 583.382 66.5062 583.544 57.5C584.801 57.7373 585.774 57.404 586.464 56.5Z" fill="#141415"/>
<path fill-rule="evenodd" clip-rule="evenodd" d="M870.692 84.5C871.989 85.1667 871.989 85.1667 870.692 84.5Z" fill="black"/>
<path fill-rule="evenodd" clip-rule="evenodd" d="M495.939 85.5C497.236 86.1667 497.236 86.1667 495.939 85.5Z" fill="black"/>
<path fill-rule="evenodd" clip-rule="evenodd" d="M532.928 85.5C534.225 86.1667 534.225 86.1667 532.928 85.5Z" fill="black"/>
<path fill-rule="evenodd" clip-rule="evenodd" d="M370.373 102.5C374.603 102.334 378.821 102.501 383.027 103C388.12 105.633 389.904 109.799 388.38 115.5C387.244 118 385.46 119.833 383.027 121C387.075 124.649 389.671 129.149 390.814 134.5C388.198 134.664 385.602 134.497 383.027 134C379.981 130.227 377.061 126.394 374.266 122.5C375.564 122.5 376.862 122.5 378.16 122.5C379.024 125.243 380.16 127.91 381.567 130.5C383.109 131.861 384.894 132.528 386.92 132.5C385.881 128.557 384.096 124.89 381.567 121.5C381.09 120.207 380.927 118.873 381.08 117.5C377.93 117.482 375.334 116.482 373.293 114.5C375.587 114.663 377.858 114.497 380.107 114C381.301 112.413 380.977 111.079 379.133 110C376.558 109.503 373.962 109.336 371.346 109.5C371.346 111.167 371.346 112.833 371.346 114.5C370.96 115.525 370.311 115.692 369.399 115C369.676 113.044 369.676 110.877 369.399 108.5C372.837 107.917 376.406 108.083 380.107 109C381.684 111.166 382.496 113.666 382.54 116.5C383.901 115.949 385.199 115.616 386.434 115.5C387.142 112.77 386.981 110.103 385.947 107.5C381.209 104.355 376.018 102.688 370.373 102.5ZM373.293 114.5C372.644 114.5 371.995 114.5 371.346 114.5C371.346 112.833 371.346 111.167 371.346 109.5C373.962 109.336 376.558 109.503 379.133 110C380.977 111.079 381.301 112.413 380.107 114C377.858 114.497 375.587 114.663 373.293 114.5Z" fill="#111F4A"/>
<path fill-rule="evenodd" clip-rule="evenodd" d="M712.03 103.5C715.072 102.521 718.316 102.187 721.764 102.5C721.764 113.167 721.764 123.833 721.764 134.5C719.533 134.756 717.424 134.423 715.437 133.5C714.951 128.511 714.789 123.511 714.95 118.5C715.925 122.396 716.249 127.063 715.924 132.5C717.524 132.714 718.984 132.38 720.304 131.5C720.363 122.108 720.525 112.774 720.791 103.5C717.666 103.751 714.746 103.751 712.03 103.5Z" fill="#131E46"/>
<path fill-rule="evenodd" clip-rule="evenodd" d="M792.821 111.5C790.982 111.703 789.522 111.037 788.441 109.5C788.137 112.595 788.623 115.595 789.901 118.5C788.388 120.943 787.738 123.61 787.954 126.5C785.767 126.915 783.658 127.582 781.627 128.5C780.586 128.472 779.775 128.139 779.194 127.5C785.423 125.541 787.532 121.208 785.521 114.5C783.999 110.131 780.917 108.465 776.274 109.5C776.274 115.5 776.274 121.5 776.274 127.5C776.215 128.043 775.891 128.376 775.3 128.5C774.887 124.059 773.913 119.892 772.38 116C773.945 114.951 774.593 113.451 774.327 111.5C773.303 111.649 772.33 111.483 771.407 111C773.87 109.805 775.816 107.972 777.247 105.5C777.044 104.914 776.719 104.414 776.274 104C774.353 103.505 772.407 103.338 770.434 103.5C770.025 112.015 769.701 120.349 769.46 128.5C770.298 130.911 771.596 132.911 773.354 134.5C771.439 134.739 769.654 134.406 768 133.5C767.351 123.5 767.351 113.5 768 103.5C773.597 102.359 779.276 102.193 785.034 103C789.143 104.387 791.739 107.221 792.821 111.5ZM779.194 127.5C778.221 127.5 777.247 127.5 776.274 127.5C776.274 121.5 776.274 115.5 776.274 109.5C780.917 108.465 783.999 110.131 785.521 114.5C787.532 121.208 785.423 125.541 779.194 127.5Z" fill="#0A1A4C"/>
<path fill-rule="evenodd" clip-rule="evenodd" d="M588.411 121.5C586.53 115.695 586.206 109.695 587.437 103.5C585.523 103.261 583.737 103.594 582.084 104.5C581.715 112.717 581.552 120.717 581.597 128.5C580.68 119.887 580.356 111.221 580.624 102.5C583.22 102.5 585.815 102.5 588.411 102.5C588.411 108.833 588.411 115.167 588.411 121.5Z" fill="#182243"/>
<path fill-rule="evenodd" clip-rule="evenodd" d="M875.559 102.5C877.277 103.461 879.224 103.795 881.399 103.5C881.61 112.533 881.285 121.533 880.426 130.5C880.426 131.167 880.102 131.5 879.453 131.5C879.516 131.062 879.354 130.728 878.966 130.5C872.763 133.63 866.436 133.63 859.985 130.5C859.868 127.52 859.219 124.687 858.038 122C858.824 116.917 859.31 111.75 859.498 106.5C860.641 104.329 862.425 103.329 864.852 103.5C865.659 110.655 866.145 117.989 866.312 125.5C868.908 128.167 871.503 128.167 874.099 125.5C874.265 117.656 874.752 109.989 875.559 102.5Z" fill="#061950"/>
<path fill-rule="evenodd" clip-rule="evenodd" d="M891.133 103.5C889.403 105.805 887.781 108.305 886.266 111C887.564 113.333 888.862 115.667 890.16 118C889.938 118.399 889.613 118.565 889.187 118.5C885.315 115.25 884.505 111.25 886.753 106.5C887.852 104.859 889.312 103.859 891.133 103.5Z" fill="#0F1B42"/>
<path fill-rule="evenodd" clip-rule="evenodd" d="M911.574 102.5C919.685 102.5 927.798 102.5 935.909 102.5C935.909 104.833 935.909 107.167 935.909 109.5C933.313 109.5 930.718 109.5 928.122 109.5C928.283 117.507 928.122 125.507 927.635 133.5C925.039 134.833 922.444 134.833 919.848 133.5C919.361 125.507 919.2 117.507 919.361 109.5C916.746 109.664 914.15 109.497 911.574 109C910.34 106.837 910.34 104.67 911.574 102.5Z" fill="#0B1C4E"/>
<path fill-rule="evenodd" clip-rule="evenodd" d="M512.487 120.5C510.206 116.78 508.259 112.78 506.646 108.5C505.805 106.803 504.508 105.637 502.753 105C503.077 104.667 503.402 104.333 503.726 104C502.136 103.506 500.513 103.34 498.859 103.5C499.017 105.527 498.854 107.527 498.373 109.5C496.416 114.195 493.983 118.528 491.072 122.5C493.35 115.823 495.622 109.156 497.886 102.5C500.876 102.183 503.796 102.516 506.646 103.5C508.993 109.068 510.94 114.735 512.487 120.5ZM501.779 114.5C505.712 118.9 505.064 120.9 499.833 120.5C500.673 118.579 501.321 116.579 501.779 114.5Z" fill="#101D47"/>
<path fill-rule="evenodd" clip-rule="evenodd" d="M446.297 127.5C443.445 129.074 441.011 128.408 438.996 125.5C438.077 120.433 437.104 115.433 436.076 110.5C435.674 113.232 435.025 115.899 434.129 118.5C433.805 116.167 433.48 113.833 433.156 111.5C432.458 115.045 432.621 118.545 433.643 122C433.316 123.03 432.666 123.53 431.696 123.5C431.534 116.825 431.696 110.158 432.183 103.5C435.061 101.923 437.657 102.256 439.97 104.5C440.294 111.5 440.619 118.5 440.943 125.5C442.485 126.861 444.27 127.528 446.297 127.5Z" fill="#0E1C4E"/>
<path fill-rule="evenodd" clip-rule="evenodd" d="M526.114 126.5C525.307 119.345 524.821 112.011 524.654 104.5C522.974 103.424 521.19 103.257 519.301 104C519.809 104.561 520.133 105.228 520.274 106C519.67 113.643 519.021 121.143 518.327 128.5C518.327 119.833 518.327 111.167 518.327 102.5C520.923 102.5 523.518 102.5 526.114 102.5C526.114 110.5 526.114 118.5 526.114 126.5Z" fill="#1B264A"/>
<path fill-rule="evenodd" clip-rule="evenodd" d="M573.81 112.5C575.613 108.897 574.64 106.397 570.89 105C568.294 104.333 565.699 104.333 563.102 105C560.74 106.591 558.145 107.425 555.315 107.5C555.095 110.249 555.42 112.916 556.289 115.5C559.31 118.045 562.554 120.045 566.023 121.5C555.294 121.087 551.563 115.754 554.829 105.5C561.901 100.019 568.715 100.352 575.27 106.5C576.858 108.96 576.858 111.293 575.27 113.5C574.897 112.944 574.41 112.611 573.81 112.5Z" fill="#121E47"/>
<path fill-rule="evenodd" clip-rule="evenodd" d="M712.03 103.5C714.746 103.751 717.666 103.751 720.791 103.5C720.525 112.774 720.363 122.108 720.304 131.5C718.984 132.38 717.524 132.714 715.924 132.5C716.249 127.063 715.925 122.396 714.95 118.5C714.025 119.919 713.701 121.585 713.977 123.5C713.008 123.414 712.197 123.748 711.544 124.5C710.493 127.063 710.007 129.729 710.083 132.5C707.699 132.702 705.428 132.369 703.27 131.5C702.621 131.5 702.296 131.167 702.296 130.5C703.248 130.189 703.898 129.522 704.243 128.5C702.099 124.058 701.775 119.391 703.27 114.5C704.553 116.751 706.174 118.751 708.137 120.5C708.607 117.331 709.904 114.664 712.03 112.5C711.143 109.535 711.143 106.535 712.03 103.5Z" fill="#031855"/>
<path fill-rule="evenodd" clip-rule="evenodd" d="M875.559 102.5C877.83 102.5 880.102 102.5 882.373 102.5C882.534 110.84 882.373 119.173 881.886 127.5C881.66 128.737 881.174 129.737 880.426 130.5C881.286 121.533 881.61 112.533 881.399 103.5C879.224 103.795 877.277 103.461 875.559 102.5Z" fill="#21294E"/>
<path fill-rule="evenodd" clip-rule="evenodd" d="M937.855 102.5C940.405 102.232 942.838 102.565 945.156 103.5C945.953 113.744 945.791 123.91 944.669 134C942.461 134.758 940.351 134.591 938.342 133.5C937.855 123.172 937.694 112.839 937.855 102.5Z" fill="#0C1C51"/>
<path fill-rule="evenodd" clip-rule="evenodd" d="M609.825 102.5C615.674 102.334 621.515 102.501 627.346 103C632.806 106.277 634.59 111.11 632.7 117.5C632.247 118.931 631.435 120.097 630.266 121C626.159 122.342 621.941 123.175 617.612 123.5C617.773 126.85 617.61 130.183 617.126 133.5C614.808 134.435 612.374 134.768 609.825 134.5C609.825 123.833 609.825 113.167 609.825 102.5ZM617.612 109.5C620.93 108.828 623.526 109.828 625.399 112.5C623.526 115.172 620.93 116.172 617.612 115.5C617.612 113.5 617.612 111.5 617.612 109.5Z" fill="#091A50"/>
<path fill-rule="evenodd" clip-rule="evenodd" d="M804.502 112.5C804.61 113.117 804.934 113.617 805.476 114C809.294 114.793 813.025 114.626 816.669 113.5C819.176 115.564 819.663 118.064 818.13 121C813.587 121.333 809.045 121.667 804.502 122C805.742 122.977 805.742 123.811 804.502 124.5C803.593 125.568 803.268 126.901 803.529 128.5C808.72 128.833 813.912 129.167 819.103 129.5C819.447 131.635 818.636 132.968 816.669 133.5C812.588 131.873 808.533 130.706 804.502 130C805.594 131.613 805.108 132.78 803.042 133.5C801.57 132.743 800.272 131.743 799.149 130.5C799.123 127.976 798.637 125.309 797.688 122.5C798.538 116.198 798.862 109.865 798.662 103.5C804.835 103.334 811 103.5 817.156 104C818.72 105.049 819.369 106.549 819.103 108.5C813.912 108.5 808.72 108.5 803.529 108.5C803.268 110.099 803.593 111.432 804.502 112.5Z" fill="#041852"/>
<path fill-rule="evenodd" clip-rule="evenodd" d="M864.852 103.5C862.425 103.329 860.641 104.329 859.498 106.5C859.31 111.75 858.824 116.917 858.038 122C859.219 124.687 859.868 127.52 859.985 130.5C858.726 129.158 857.915 127.491 857.551 125.5C856.902 118.167 856.902 110.833 857.551 103.5C860.087 102.186 862.521 102.186 864.852 103.5Z" fill="#0E1D46"/>
<path fill-rule="evenodd" clip-rule="evenodd" d="M603.985 130.5C603.377 130.083 603.053 129.416 603.011 128.5C603.617 120.282 604.265 112.116 604.958 104C603.389 103.28 601.929 103.446 600.578 104.5C599.385 111.755 598.736 119.089 598.631 126.5C597.647 127.337 596.511 127.67 595.224 127.5C596.167 126.691 596.978 125.691 597.658 124.5C598.144 117.174 598.306 109.841 598.144 102.5C600.74 102.5 603.335 102.5 605.931 102.5C606.093 110.507 605.931 118.507 605.445 126.5C605.046 127.901 604.559 129.234 603.985 130.5Z" fill="#15224C"/>
<path fill-rule="evenodd" clip-rule="evenodd" d="M573.81 112.5C572.316 113.788 570.694 113.788 568.943 112.5C566.872 108.734 564.276 108.067 561.156 110.5C564.959 112.691 568.853 114.691 572.837 116.5C573.998 119.052 575.296 121.552 576.73 124C574.265 124.852 572.318 124.186 570.89 122C569.299 121.506 567.677 121.34 566.023 121.5C562.555 120.045 559.31 118.045 556.289 115.5C555.42 112.916 555.096 110.249 555.316 107.5C558.145 107.425 560.74 106.591 563.103 105C565.699 104.333 568.294 104.333 570.89 105C574.64 106.397 575.614 108.897 573.81 112.5Z" fill="#071952"/>
<path fill-rule="evenodd" clip-rule="evenodd" d="M468.684 118.5C467.387 118.833 467.387 119.167 468.684 119.5C467.764 124.405 467.439 129.405 467.711 134.5C465.535 134.795 463.589 134.461 461.871 133.5C461.871 123.5 461.871 113.5 461.871 103.5C464.939 102.959 467.372 103.959 469.171 106.5C470.475 109.202 471.773 111.869 473.065 114.5C473.67 119.263 473.507 120.263 472.578 117.5C471.021 117.232 469.724 117.566 468.684 118.5Z" fill="#061A52"/>
<path fill-rule="evenodd" clip-rule="evenodd" d="M674.068 121.5C673.96 120.883 673.636 120.383 673.095 120C675.422 119.713 677.693 119.213 679.909 118.5C681.682 118.463 683.629 118.796 685.749 119.5C686.153 117.052 685.18 115.719 682.829 115.5C679.554 116.075 676.309 116.742 673.095 117.5C672.422 116.975 671.935 116.308 671.635 115.5C670.248 116.212 668.788 116.379 667.255 116C666.306 121.741 665.982 127.575 666.281 133.5C669.871 133.45 673.441 133.116 676.989 132.5C679.848 132.568 682.444 133.234 684.776 134.5C678.286 134.5 671.798 134.5 665.308 134.5C665.177 123.994 665.177 113.327 665.308 102.5C673.095 102.5 680.882 102.5 688.669 102.5C688.669 104.833 688.669 107.167 688.669 109.5C683.478 109.5 678.286 109.5 673.095 109.5C672.939 111.199 673.101 112.866 673.582 114.5C678.139 114.336 682.844 114.336 687.696 114.5C688.12 117.364 687.309 119.697 685.262 121.5C681.678 121.281 677.946 121.281 674.068 121.5Z" fill="#0C1C49"/>
<path fill-rule="evenodd" clip-rule="evenodd" d="M669.201 103.5C675.042 103.5 680.882 103.5 686.722 103.5C686.935 104.675 686.611 105.675 685.749 106.5C682.596 107.074 679.351 107.074 676.015 106.5C673.33 107.962 670.573 109.295 667.741 110.5C666.948 107.802 667.435 105.468 669.201 103.5Z" fill="#041757"/>
<path fill-rule="evenodd" clip-rule="evenodd" d="M512.486 120.5C511.441 123.068 509.494 124.735 506.646 125.5C505.88 124.758 505.232 123.925 504.699 123C506.191 122.3 507.164 121.134 507.62 119.5C506.237 117.291 504.615 115.291 502.753 113.5C502.162 113.624 501.838 113.957 501.779 114.5C501.321 116.579 500.673 118.579 499.832 120.5C500.203 121.931 501.177 122.764 502.753 123C500.998 125.103 498.727 125.936 495.939 125.5C495.939 126.833 495.939 128.167 495.939 129.5C493.48 130.468 492.832 129.634 493.992 127C492.81 124.904 491.998 125.071 491.559 127.5C490.893 126.216 491.055 125.049 492.045 124C491.467 123.536 490.818 123.369 490.099 123.5C490.099 122.833 490.423 122.5 491.072 122.5C493.982 118.528 496.416 114.195 498.372 109.5C498.854 107.527 499.017 105.527 498.859 103.5C500.513 103.34 502.135 103.506 503.726 104C503.402 104.333 503.077 104.667 502.753 105C504.508 105.637 505.805 106.803 506.646 108.5C508.259 112.78 510.206 116.78 512.486 120.5ZM501.779 114.5C505.712 118.9 505.063 120.9 499.832 120.5C500.673 118.579 501.321 116.579 501.779 114.5Z" fill="#031854"/>
<path fill-rule="evenodd" clip-rule="evenodd" d="M712.03 103.5C711.142 106.535 711.142 109.535 712.03 112.5C709.904 114.664 708.607 117.331 708.137 120.5C706.174 118.751 704.553 116.751 703.27 114.5C701.775 119.391 702.099 124.058 704.243 128.5C703.898 129.522 703.248 130.189 702.296 130.5C701.642 126.812 700.831 123.145 699.863 119.5C699.377 124.489 699.215 129.489 699.376 134.5C697.145 134.756 695.036 134.423 693.049 133.5C692.563 123.172 692.401 112.839 692.563 102.5C696.132 102.5 699.7 102.5 703.27 102.5C704.058 108.067 705.518 113.4 707.65 118.5C708.377 113.157 709.837 108.157 712.03 103.5Z" fill="#0E1D4C"/>
<path fill-rule="evenodd" clip-rule="evenodd" d="M369.399 102.5C369.723 102.5 370.048 102.5 370.373 102.5C376.018 102.688 381.209 104.355 385.947 107.5C386.98 110.103 387.142 112.77 386.433 115.5C385.199 115.616 383.901 115.949 382.54 116.5C382.496 113.666 381.684 111.166 380.106 109C376.406 108.083 372.837 107.917 369.399 108.5C369.676 110.877 369.676 113.044 369.399 115C370.311 115.692 370.959 115.525 371.346 114.5C371.995 114.5 372.643 114.5 373.293 114.5C375.334 116.482 377.93 117.482 381.08 117.5C380.927 118.873 381.09 120.207 381.566 121.5C384.095 124.89 385.881 128.557 386.92 132.5C384.893 132.528 383.108 131.861 381.566 130.5C380.16 127.91 379.024 125.243 378.16 122.5C376.862 122.5 375.564 122.5 374.266 122.5C373.617 122.5 373.293 122.167 373.293 121.5C372.253 120.566 370.956 120.232 369.399 120.5C369.561 124.846 369.398 129.179 368.912 133.5C367.593 132.62 366.132 132.286 364.532 132.5C364.371 123.494 364.532 114.494 365.019 105.5C366.294 104.103 367.754 103.103 369.399 102.5ZM373.293 114.5C372.643 114.5 371.995 114.5 371.346 114.5C371.346 112.833 371.346 111.167 371.346 109.5C373.961 109.336 376.557 109.503 379.133 110C380.977 111.079 381.301 112.413 380.106 114C377.858 114.497 375.587 114.663 373.293 114.5Z" fill="#031754"/>
<path fill-rule="evenodd" clip-rule="evenodd" d="M432.669 124.5C432.02 124.5 431.696 124.167 431.696 123.5C432.666 123.53 433.316 123.03 433.643 122C432.621 118.545 432.458 115.045 433.156 111.5C433.48 113.833 433.805 116.167 434.129 118.5C435.025 115.899 435.674 113.232 436.076 110.5C437.104 115.433 438.077 120.433 438.996 125.5C441.011 128.408 443.445 129.074 446.297 127.5C447.594 127.5 448.893 127.5 450.19 127.5C450.19 119.5 450.19 111.5 450.19 103.5C452.137 103.5 454.084 103.5 456.03 103.5C454.98 107.802 454.98 112.135 456.03 116.5C455.92 118.641 455.271 120.475 454.084 122C454.994 124.381 455.318 126.881 455.057 129.5C450.87 130.606 446.651 131.606 442.403 132.5C440.249 130.226 437.654 128.726 434.616 128C434.047 126.698 433.398 125.531 432.669 124.5Z" fill="#021955"/>
<path fill-rule="evenodd" clip-rule="evenodd" d="M995.285 129.5C995.071 127.319 995.888 125.653 997.718 124.5C999.169 125.747 1000.63 125.747 1002.1 124.5C1001.2 122.244 999.578 121.244 997.232 121.5C997.115 113.816 999.879 112.149 1005.51 116.5C1007.19 116.266 1008.01 115.266 1007.94 113.5C1006.55 110.232 1004.93 107.065 1003.07 104C998.195 103.122 996.249 105.288 997.232 110.5C996.258 110.5 995.285 110.5 994.312 110.5C995.188 107.972 996.161 105.472 997.232 103C1000.08 102.223 1002.84 102.39 1005.51 103.5C1009.81 113.662 1013.54 123.996 1016.7 134.5C1010.35 136.327 1007.11 133.994 1006.97 127.5C1002.75 127.016 998.857 127.682 995.285 129.5ZM1000.15 115.5C1002.33 116.3 1003.31 117.966 1003.07 120.5C1001.63 120.762 1000.34 120.429 999.178 119.5C999.908 118.264 1000.23 116.93 1000.15 115.5Z" fill="#0F1D4D"/>
<path fill-rule="evenodd" clip-rule="evenodd" d="M398.601 103.5C399.728 113.325 399.891 123.325 399.087 133.5C396.77 134.435 394.336 134.768 391.787 134.5C391.787 126.5 391.787 118.5 391.787 110.5C392.594 117.989 393.081 125.656 393.247 133.5C394.716 132.91 396.176 132.244 397.627 131.5C398.575 122.22 398.9 112.887 398.601 103.5Z" fill="#182345"/>
<path fill-rule="evenodd" clip-rule="evenodd" d="M485.232 104.5C483.476 104.576 481.529 104.243 479.392 103.5C480.033 109.794 479.871 116.127 478.905 122.5C478.527 121.572 477.878 120.905 476.958 120.5C476.586 122.037 475.775 123.37 474.525 124.5C476.577 127.157 477.874 130.157 478.418 133.5C475.174 128.833 471.929 124.167 468.685 119.5C468.685 119.167 468.685 118.833 468.685 118.5C469.724 117.566 471.022 117.232 472.578 117.5C473.508 120.263 473.67 119.263 473.065 114.5C471.773 111.869 470.476 109.202 469.171 106.5C467.372 103.959 464.939 102.959 461.871 103.5C461.871 113.5 461.871 123.5 461.871 133.5C460.903 123.347 460.578 113.014 460.897 102.5C463.571 102.187 466.167 102.52 468.685 103.5C471.767 108.5 474.849 113.5 477.932 118.5C478.417 113.177 478.58 107.844 478.418 102.5C481.23 101.99 483.5 102.656 485.232 104.5Z" fill="#121F4B"/>
<path fill-rule="evenodd" clip-rule="evenodd" d="M636.106 130.5C639.653 133.347 641.6 132.347 641.947 127.5C642.477 122.43 640.53 120.763 636.106 122.5C636.994 115.932 637.318 109.432 637.08 103C643.569 102.333 650.058 102.333 656.547 103C662.654 106.932 663.789 112.099 659.954 118.5C658.733 119.211 657.598 120.044 656.547 121C660.596 124.649 663.192 129.149 664.335 134.5C661.344 134.817 658.424 134.484 655.574 133.5C653.247 128.721 650.002 124.721 645.84 121.5C645.164 125.713 644.515 129.879 643.893 134C641.623 134.667 639.351 134.667 637.08 134C636.265 132.989 635.941 131.822 636.106 130.5ZM644.867 109.5C647.482 109.336 650.078 109.503 652.654 110C653.951 111.333 653.951 112.667 652.654 114C650.078 114.497 647.482 114.664 644.867 114.5C644.867 112.833 644.867 111.167 644.867 109.5Z" fill="#0A1B4E"/>
<path fill-rule="evenodd" clip-rule="evenodd" d="M588.411 121.5C588.557 125.98 590.828 127.98 595.224 127.5C596.511 127.67 597.647 127.337 598.631 126.5C598.736 119.089 599.386 111.755 600.578 104.5C601.929 103.446 603.389 103.28 604.958 104C604.265 112.116 603.617 120.282 603.012 128.5C603.053 129.416 603.378 130.083 603.985 130.5C602.94 131.885 601.642 133.051 600.091 134C595.874 134.667 591.655 134.667 587.437 134C585.008 132.669 583.061 130.836 581.597 128.5C581.552 120.717 581.715 112.717 582.084 104.5C583.738 103.594 585.523 103.261 587.437 103.5C586.206 109.695 586.53 115.695 588.411 121.5Z" fill="#061950"/>
<path fill-rule="evenodd" clip-rule="evenodd" d="M130.92 119.5C133.594 119.187 136.19 119.52 138.707 120.5C140.335 122.761 140.011 124.428 137.734 125.5C137.734 124.167 137.734 122.833 137.734 121.5C120.537 121.5 103.341 121.5 86.1443 121.5C85.4021 120.732 84.4287 120.232 83.2241 120C99.1195 119.5 115.018 119.333 130.92 119.5Z" fill="#2E2F42"/>
<path fill-rule="evenodd" clip-rule="evenodd" d="M398.601 103.5C398.9 112.887 398.575 122.22 397.627 131.5C396.176 132.244 394.716 132.91 393.247 133.5C393.081 125.656 392.594 117.989 391.787 110.5C391.787 107.833 391.787 105.167 391.787 102.5C394.278 102.198 396.55 102.532 398.601 103.5Z" fill="#03184F"/>
<path fill-rule="evenodd" clip-rule="evenodd" d="M674.068 121.5C673.133 123.265 672.808 125.265 673.095 127.5C678.286 127.5 683.478 127.5 688.669 127.5C688.669 129.833 688.669 132.167 688.669 134.5C687.372 134.5 686.073 134.5 684.776 134.5C682.444 133.234 679.848 132.568 676.989 132.5C673.441 133.116 669.871 133.45 666.281 133.5C665.982 127.575 666.306 121.741 667.255 116C668.788 116.379 670.248 116.212 671.635 115.5C671.935 116.308 672.421 116.975 673.095 117.5C676.309 116.742 679.553 116.075 682.829 115.5C685.18 115.719 686.153 117.052 685.749 119.5C683.629 118.796 681.682 118.463 679.909 118.5C677.693 119.213 675.422 119.713 673.095 120C673.636 120.383 673.96 120.883 674.068 121.5Z" fill="#05194F"/>
<path fill-rule="evenodd" clip-rule="evenodd" d="M957.323 111.5C954.69 111.38 954.041 112.38 955.376 114.5C954.727 118.167 954.079 121.833 953.43 125.5C952.941 126.521 952.293 126.688 951.483 126C950.837 124.482 949.864 123.315 948.563 122.5C946.103 110.695 950.645 103.695 962.19 101.5C967.806 101.794 971.862 104.461 974.357 109.5C975.087 110.635 974.922 111.635 973.871 112.5C972.039 113.093 970.255 113.76 968.517 114.5C965.848 109.184 962.117 108.184 957.323 111.5Z" fill="#07184F"/>
<path fill-rule="evenodd" clip-rule="evenodd" d="M421.962 103.5C416.385 103.212 410.869 103.546 405.414 104.5C404.28 113.482 404.118 122.482 404.928 131.5C407.657 132.868 410.416 133.868 413.201 134.5C409.957 134.5 406.712 134.5 403.468 134.5C403.581 124.083 403.419 113.75 402.981 103.5C409.404 102.174 415.731 102.174 421.962 103.5Z" fill="#122042"/>
<path fill-rule="evenodd" clip-rule="evenodd" d="M361.612 103.5C353.501 103.5 345.389 103.5 337.278 103.5C337.023 104.978 337.347 106.311 338.251 107.5C340.766 108.393 343.362 108.726 346.038 108.5C345.876 116.174 346.038 123.841 346.525 131.5C348.179 132.406 349.964 132.739 351.878 132.5C351.878 124.5 351.878 116.5 351.878 108.5C355.226 108.747 358.47 108.414 361.612 107.5C359.19 109.388 356.27 110.055 352.852 109.5C352.852 117.833 352.852 126.167 352.852 134.5C350.302 134.768 347.869 134.435 345.551 133.5C345.065 125.507 344.903 117.507 345.065 109.5C342.145 109.5 339.224 109.5 336.304 109.5C336.304 107.167 336.304 104.833 336.304 102.5C344.918 102.174 353.354 102.507 361.612 103.5Z" fill="#1D2A4B"/>
<path fill-rule="evenodd" clip-rule="evenodd" d="M977.764 102.5C980.314 102.232 982.748 102.565 985.065 103.5C985.717 113.5 985.717 123.5 985.065 133.5C982.748 134.435 980.314 134.768 977.764 134.5C977.764 123.833 977.764 113.167 977.764 102.5Z" fill="#192449"/>
<path fill-rule="evenodd" clip-rule="evenodd" d="M694.51 104.5C696.129 105.949 696.941 107.949 696.943 110.5C697.425 108.527 697.587 106.527 697.43 104.5C698.727 104.5 700.026 104.5 701.323 104.5C702.066 107.141 702.229 109.808 701.81 112.5C700.837 115.167 699.863 115.167 698.89 112.5C698.641 115.557 698.154 118.557 697.43 121.5C697.777 124.899 697.939 128.232 697.916 131.5C696.597 132.38 695.136 132.714 693.536 132.5C693.264 123.114 693.588 113.78 694.51 104.5Z" fill="#011550"/>
<path fill-rule="evenodd" clip-rule="evenodd" d="M753.886 123.5C753.382 118.47 752.246 113.47 750.479 108.5C748.063 107.002 745.63 105.502 743.179 104C741.01 103.18 739.063 103.513 737.338 105C741.107 107.097 744.677 109.431 748.046 112C748.046 116.333 748.046 120.667 748.046 125C740.515 131.811 734.514 130.644 730.038 121.5C728.389 123.683 728.226 126.016 729.551 128.5C731.859 131.603 734.942 133.27 738.798 133.5C743.125 132.851 747.181 131.518 750.966 129.5C747.967 133.09 744.073 134.757 739.285 134.5C729.479 134.26 724.288 129.093 723.711 119C724.976 105.351 732.114 100.018 745.125 103C753.155 107.345 756.075 114.178 753.886 123.5ZM736.365 109.5C744.595 109.696 747.678 114.029 745.612 122.5C743.335 127.256 739.928 128.423 735.392 126C731.272 120.156 731.596 114.656 736.365 109.5Z" fill="#0C1C4A"/>
<path fill-rule="evenodd" clip-rule="evenodd" d="M995.285 129.5C995.285 129.833 995.285 130.167 995.285 130.5C994.001 130.821 992.706 131.154 991.392 131.5C989.669 131.566 988.696 130.732 988.472 129C991.1 123.423 993.047 117.59 994.312 111.5C994.312 111.167 994.312 110.833 994.312 110.5C995.285 110.5 996.259 110.5 997.232 110.5C996.249 105.288 998.196 103.122 1003.07 104C1004.93 107.065 1006.55 110.232 1007.94 113.5C1008.01 115.266 1007.19 116.266 1005.51 116.5C999.88 112.149 997.115 113.816 997.232 121.5C999.578 121.244 1001.2 122.244 1002.1 124.5C1000.63 125.747 999.169 125.747 997.719 124.5C995.889 125.653 995.071 127.319 995.285 129.5Z" fill="#031855"/>
<path fill-rule="evenodd" clip-rule="evenodd" d="M369.399 102.5C367.754 103.103 366.294 104.103 365.019 105.5C364.532 114.494 364.371 123.494 364.532 132.5C366.133 132.286 367.593 132.62 368.913 133.5C369.398 129.179 369.561 124.846 369.399 120.5C370.956 120.232 372.253 120.566 373.293 121.5C371.572 125.044 370.76 129.044 370.859 133.5C368.263 134.833 365.668 134.833 363.072 133.5C362.423 123.5 362.423 113.5 363.072 103.5C365.059 102.577 367.168 102.244 369.399 102.5Z" fill="#1D2B54"/>
<path fill-rule="evenodd" clip-rule="evenodd" d="M501.779 114.5C501.838 113.957 502.162 113.624 502.753 113.5C504.615 115.291 506.237 117.291 507.62 119.5C507.164 121.134 506.191 122.3 504.699 123C505.232 123.925 505.88 124.758 506.646 125.5C509.494 124.735 511.441 123.068 512.486 120.5C515.252 124.684 516.874 129.351 517.353 134.5C511.979 135.93 508.735 133.93 507.62 128.5C503.454 127.016 499.561 127.35 495.939 129.5C495.939 128.167 495.939 126.833 495.939 125.5C498.727 125.936 500.998 125.103 502.753 123C501.177 122.764 500.203 121.931 499.833 120.5C505.063 120.9 505.712 118.9 501.779 114.5Z" fill="#0D1C4E"/>
<path fill-rule="evenodd" clip-rule="evenodd" d="M572.836 116.5C577.683 119.626 578.818 123.959 576.243 129.5C574.741 131.378 572.957 132.878 570.89 134C566.23 134.879 561.688 134.545 557.262 133C553.687 130.487 552.065 126.987 552.395 122.5C554.701 122.149 556.973 121.982 559.209 122C561.672 128.05 565.241 128.883 569.916 124.5C568.822 123.141 567.524 122.141 566.023 121.5C567.677 121.34 569.299 121.506 570.89 122C572.318 124.186 574.264 124.852 576.73 124C575.296 121.552 573.998 119.052 572.836 116.5Z" fill="#121F4B"/>
<path fill-rule="evenodd" clip-rule="evenodd" d="M957.323 111.5C956.09 115.835 956.09 120.168 957.323 124.5C962.068 128.732 965.312 127.732 967.057 121.5C969.755 121.22 972.188 121.887 974.357 123.5C975.214 125.674 974.727 127.341 972.897 128.5C973.159 126.571 972.672 124.905 971.437 123.5C968.741 124.615 966.307 126.115 964.137 128C960.877 128.388 957.632 128.221 954.403 127.5C954.13 130.388 955.428 131.888 958.296 132C962.986 132.779 967.529 132.279 971.924 130.5C970.878 131.885 969.581 133.051 968.03 134C961.465 135.702 955.787 134.202 950.996 129.5C949.623 127.35 948.811 125.016 948.562 122.5C949.864 123.315 950.837 124.482 951.483 126C952.293 126.688 952.941 126.521 953.429 125.5C954.079 121.833 954.727 118.167 955.376 114.5C954.041 112.38 954.69 111.38 957.323 111.5Z" fill="#0D1C48"/>
<path fill-rule="evenodd" clip-rule="evenodd" d="M485.232 104.5C486.295 113.716 486.458 123.382 485.719 133.5C483.183 134.814 480.75 134.814 478.418 133.5C477.874 130.157 476.577 127.157 474.525 124.5C475.775 123.37 476.586 122.037 476.958 120.5C477.878 120.905 478.527 121.572 478.905 122.5C479.871 116.127 480.033 109.794 479.392 103.5C481.529 104.243 483.476 104.576 485.232 104.5Z" fill="#081855"/>
<path fill-rule="evenodd" clip-rule="evenodd" d="M636.106 130.5C636.106 127.833 636.106 125.167 636.106 122.5C640.53 120.763 642.477 122.43 641.947 127.5C641.6 132.347 639.653 133.347 636.106 130.5Z" fill="#041655"/>
<path fill-rule="evenodd" clip-rule="evenodd" d="M994.312 111.5C993.047 117.59 991.1 123.423 988.472 129C988.696 130.732 989.669 131.566 991.392 131.5C992.706 131.154 994 130.821 995.285 130.5C993.611 134.174 990.691 135.507 986.525 134.5C987.781 126.279 990.37 118.612 994.312 111.5Z" fill="#101C3E"/>
<path fill-rule="evenodd" clip-rule="evenodd" d="M490.099 123.5C490.818 123.369 491.467 123.536 492.046 124C491.056 125.049 490.893 126.216 491.559 127.5C491.998 125.071 492.81 124.904 493.992 127C492.832 129.634 493.48 130.468 495.939 129.5C496.147 131.144 495.822 132.644 494.966 134C492.39 134.497 489.794 134.664 487.179 134.5C487.86 130.763 488.833 127.096 490.099 123.5Z" fill="#101E4A"/>
<path fill-rule="evenodd" clip-rule="evenodd" d="M41.369 62.5C43.3102 102.82 43.9591 143.486 43.3157 184.5C47.8697 184.334 52.4122 184.501 56.9431 185C54.1546 185.183 51.5589 185.683 49.156 186.5C46.3735 186.408 43.9401 186.075 41.8556 185.5C41.369 144.501 41.2067 103.501 41.369 62.5Z" fill="#3B3C4B"/>
<path fill-rule="evenodd" clip-rule="evenodd" d="M361.612 103.5C361.612 104.833 361.612 106.167 361.612 107.5C358.47 108.414 355.226 108.747 351.878 108.5C351.878 116.5 351.878 124.5 351.878 132.5C349.964 132.739 348.178 132.406 346.525 131.5C346.038 123.841 345.876 116.174 346.038 108.5C343.362 108.726 340.766 108.393 338.251 107.5C337.347 106.311 337.023 104.978 337.278 103.5C345.389 103.5 353.501 103.5 361.612 103.5Z" fill="#04184F"/>
<path fill-rule="evenodd" clip-rule="evenodd" d="M526.114 126.5C530.563 127.441 535.105 127.774 539.742 127.5C539.204 129.331 539.204 130.997 539.742 132.5C533.897 133.75 528.057 133.75 522.221 132.5C520.721 131.714 519.423 130.714 518.327 129.5C518.327 129.167 518.327 128.833 518.327 128.5C519.021 121.143 519.67 113.643 520.274 106C520.133 105.228 519.809 104.561 519.301 104C521.19 103.257 522.974 103.424 524.654 104.5C524.821 112.011 525.307 119.345 526.114 126.5Z" fill="#051953"/>
<path fill-rule="evenodd" clip-rule="evenodd" d="M753.886 123.5C753.637 125.967 752.664 127.967 750.966 129.5C747.181 131.518 743.125 132.851 738.798 133.5C734.942 133.27 731.859 131.603 729.551 128.5C728.226 126.016 728.389 123.683 730.038 121.5C734.513 130.644 740.515 131.811 748.045 125C748.045 120.667 748.045 116.333 748.045 112C744.677 109.431 741.107 107.097 737.338 105C739.063 103.513 741.01 103.18 743.178 104C745.629 105.502 748.063 107.002 750.479 108.5C752.246 113.47 753.381 118.47 753.886 123.5Z" fill="#041752"/>
<path fill-rule="evenodd" clip-rule="evenodd" d="M776.274 127.5C777.247 127.5 778.22 127.5 779.194 127.5C779.775 128.139 780.586 128.472 781.627 128.5C783.658 127.582 785.767 126.915 787.954 126.5C787.738 123.61 788.387 120.943 789.901 118.5C788.623 115.595 788.136 112.595 788.441 109.5C789.521 111.037 790.981 111.703 792.821 111.5C793.47 111.5 793.795 111.833 793.795 112.5C792.997 115.305 792.511 118.305 792.334 121.5C790.424 123.761 789.288 126.428 788.928 129.5C785.824 132.057 782.255 133.057 778.22 132.5C778.434 131.325 778.109 130.325 777.247 129.5C775.532 130.688 774.559 132.355 774.327 134.5C774.003 134.5 773.678 134.5 773.353 134.5C771.596 132.911 770.298 130.911 769.46 128.5C769.7 120.349 770.025 112.015 770.433 103.5C772.406 103.338 774.353 103.505 776.274 104C776.718 104.414 777.044 104.914 777.247 105.5C775.816 107.972 773.869 109.805 771.407 111C772.329 111.483 773.303 111.649 774.327 111.5C774.593 113.451 773.944 114.951 772.38 116C773.913 119.892 774.887 124.059 775.3 128.5C775.891 128.376 776.215 128.043 776.274 127.5ZM779.194 127.5C778.22 127.5 777.247 127.5 776.274 127.5C776.274 121.5 776.274 115.5 776.274 109.5C780.917 108.465 783.998 110.131 785.521 114.5C787.532 121.208 785.422 125.541 779.194 127.5Z" fill="#021654"/>
<path fill-rule="evenodd" clip-rule="evenodd" d="M804.502 112.5C803.593 111.432 803.267 110.099 803.528 108.5C808.719 108.5 813.911 108.5 819.102 108.5C819.368 106.549 818.72 105.049 817.156 104C810.999 103.5 804.835 103.334 798.661 103.5C798.862 109.865 798.538 116.198 797.688 122.5C798.636 125.309 799.123 127.976 799.148 130.5C800.271 131.743 801.57 132.743 803.042 133.5C805.107 132.78 805.594 131.613 804.502 130C808.532 130.706 812.588 131.873 816.669 133.5C818.635 132.968 819.446 131.635 819.102 129.5C813.911 129.167 808.719 128.833 803.528 128.5C803.267 126.901 803.593 125.568 804.502 124.5C804.418 125.496 804.743 126.329 805.475 127C810.656 127.499 815.847 127.666 821.049 127.5C821.049 129.833 821.049 132.167 821.049 134.5C813.255 134.666 805.468 134.5 797.688 134C796.39 123.667 796.39 113.333 797.688 103C805.143 102.5 812.606 102.334 820.076 102.5C820.485 104.674 820.485 106.674 820.076 108.5C815.241 109.329 810.374 109.829 805.475 110C804.743 110.671 804.418 111.504 804.502 112.5Z" fill="#0F1D44"/>
<path fill-rule="evenodd" clip-rule="evenodd" d="M421.962 103.5C427.893 106.262 429.19 110.596 425.856 116.5C431.651 129.574 427.432 135.574 413.202 134.5C410.416 133.868 407.657 132.868 404.928 131.5C404.118 122.482 404.281 113.482 405.414 104.5C410.869 103.546 416.386 103.212 421.962 103.5ZM411.255 121.5C413.847 121.899 416.28 121.899 418.555 121.5C421.823 123.476 421.661 125.31 418.068 127C415.82 127.497 413.549 127.663 411.255 127.5C411.255 125.5 411.255 123.5 411.255 121.5ZM411.255 109.5C413.87 109.336 416.466 109.503 419.042 110C420.429 111.714 420.105 113.047 418.068 114C415.82 114.497 413.549 114.663 411.255 114.5C411.255 112.833 411.255 111.167 411.255 109.5Z" fill="#081A51"/>
<path fill-rule="evenodd" clip-rule="evenodd" d="M554.342 124.5C557.367 124.174 559.637 125.341 561.156 128C564.431 128.314 567.513 128.481 570.403 128.5C571.845 125.936 573.305 125.936 574.783 128.5C571.128 131.887 566.748 133.554 561.643 133.5C557.37 132.043 554.936 129.043 554.342 124.5Z" fill="#031652"/>
<path fill-rule="evenodd" clip-rule="evenodd" d="M844.41 127.5C842.542 128.821 842.379 130.154 843.924 131.5C846.312 130.802 848.583 129.802 850.737 128.5C850.92 122.252 851.407 116.085 852.198 110C851.299 107.959 850.975 105.792 851.224 103.5C849.601 103.5 847.98 103.5 846.357 103.5C846.674 111.019 846.349 118.352 845.384 125.5C845.384 117.833 845.384 110.167 845.384 102.5C847.98 102.5 850.575 102.5 853.171 102.5C853.604 111.94 853.117 121.274 851.711 130.5C847.729 134.305 843.024 135.472 837.597 134C830.141 127.024 831.114 123.19 840.517 122.5C839.793 125.95 841.091 127.616 844.41 127.5Z" fill="#0F1C4A"/>
<path fill-rule="evenodd" clip-rule="evenodd" d="M844.411 127.5C844.243 126.508 844.568 125.842 845.384 125.5C846.35 118.352 846.674 111.019 846.357 103.5C847.98 103.5 849.602 103.5 851.224 103.5C850.975 105.792 851.299 107.959 852.198 110C851.407 116.085 850.921 122.252 850.738 128.5C848.583 129.802 846.313 130.802 843.924 131.5C842.379 130.154 842.542 128.821 844.411 127.5Z" fill="#041855"/>
<path fill-rule="evenodd" clip-rule="evenodd" d="M972.897 128.5C973.065 129.492 972.74 130.158 971.924 130.5C967.529 132.279 962.986 132.779 958.297 132C955.428 131.888 954.131 130.388 954.403 127.5C957.632 128.221 960.877 128.388 964.137 128C966.308 126.115 968.741 124.615 971.437 123.5C972.673 124.905 973.159 126.571 972.897 128.5Z" fill="#041753"/>
<path fill-rule="evenodd" clip-rule="evenodd" d="M978.737 103.5C980.334 103.286 981.794 103.62 983.118 104.5C983.77 113.5 983.77 122.5 983.118 131.5C982.037 132.711 980.898 132.711 979.711 131.5C978.737 122.19 978.416 112.857 978.737 103.5Z" fill="#031753"/>
<path fill-rule="evenodd" clip-rule="evenodd" d="M889.186 118.5C889.613 118.565 889.938 118.399 890.16 118C888.862 115.667 887.564 113.333 886.266 111C887.781 108.305 889.402 105.805 891.133 103.5C899.892 99.77 906.057 102.437 909.627 111.5C907.323 113.395 904.727 113.895 901.84 113C899.612 108.304 896.692 107.637 893.08 111C897.202 112.814 901.42 114.48 905.734 116C909.459 119.308 910.595 123.474 909.141 128.5C908.005 131 906.22 132.833 903.787 134C897.929 135.196 892.413 134.363 887.239 131.5C885.677 128.686 884.704 125.686 884.319 122.5C886.312 122.489 888.259 122.156 890.16 121.5C892.104 122.967 893.726 124.8 895.027 127C897.04 127.687 898.986 127.52 900.867 126.5C902.065 125.349 902.065 124.183 900.867 123C896.745 121.789 892.851 120.289 889.186 118.5Z" fill="#0A194F"/>
<path fill-rule="evenodd" clip-rule="evenodd" d="M432.669 124.5C433.399 125.531 434.047 126.698 434.616 128C437.654 128.726 440.249 130.226 442.403 132.5C446.651 131.606 450.87 130.606 455.057 129.5C455.318 126.881 454.994 124.381 454.084 122C455.271 120.475 455.921 118.641 456.031 116.5C454.98 112.135 454.98 107.802 456.031 103.5C454.084 103.5 452.137 103.5 450.19 103.5C450.19 111.5 450.19 119.5 450.19 127.5C448.893 127.5 447.594 127.5 446.297 127.5C446.951 126.733 447.762 126.066 448.73 125.5C449.217 117.841 449.379 110.174 449.217 102.5C451.813 102.5 454.408 102.5 457.004 102.5C457.166 110.84 457.004 119.173 456.517 127.5C456.181 129.848 455.045 131.681 453.111 133C446.195 135.706 439.868 134.872 434.13 130.5C433.032 128.655 432.545 126.655 432.669 124.5Z" fill="#101E4A"/>
<path fill-rule="evenodd" clip-rule="evenodd" d="M713.977 123.5C712.903 127.082 711.604 130.582 710.084 134C708.137 134.667 706.19 134.667 704.244 134C703.512 133.329 703.186 132.496 703.27 131.5C705.428 132.369 707.699 132.702 710.084 132.5C710.007 129.729 710.494 127.063 711.544 124.5C712.197 123.748 713.008 123.414 713.977 123.5Z" fill="#182346"/>
<path fill-rule="evenodd" clip-rule="evenodd" d="M793.795 112.5C796.384 128.502 789.894 135.835 774.327 134.5C774.559 132.355 775.532 130.688 777.247 129.5C778.11 130.325 778.434 131.325 778.221 132.5C782.255 133.057 785.824 132.057 788.928 129.5C789.288 126.428 790.424 123.761 792.335 121.5C792.511 118.305 792.998 115.305 793.795 112.5Z" fill="#131D45"/>
<path fill-rule="evenodd" clip-rule="evenodd" d="M539.742 127.5C540.684 129.607 541.009 131.941 540.715 134.5C533.569 134.666 526.432 134.5 519.301 134C518.444 132.644 518.119 131.144 518.327 129.5C519.423 130.714 520.721 131.714 522.221 132.5C528.057 133.75 533.897 133.75 539.742 132.5C539.204 130.997 539.204 129.331 539.742 127.5Z" fill="#1E2646"/>
<path fill-rule="evenodd" clip-rule="evenodd" d="M859.985 130.5C866.436 133.63 872.763 133.63 878.966 130.5C879.354 130.728 879.516 131.062 879.453 131.5C876.734 133.92 873.49 134.92 869.719 134.5C865.556 135.227 862.31 133.893 859.985 130.5Z" fill="#162243"/>
<path fill-rule="evenodd" clip-rule="evenodd" d="M187.376 116.5C191.106 117.818 194.189 120.152 196.624 123.5C198.846 127.618 200.63 131.951 201.977 136.5C208.607 142.541 216.394 145.207 225.338 144.5C230.043 144.643 234.585 143.977 238.966 142.5C237.762 144.097 236.139 145.263 234.099 146C221.645 147.975 210.452 145.141 200.517 137.5C199.497 133.807 197.713 130.641 195.164 128C196.224 125.737 195.574 123.904 193.217 122.5C191.91 123.902 191.099 123.569 190.783 121.5C190.134 122.833 189.486 122.833 188.837 121.5C188.245 119.846 187.758 118.179 187.376 116.5Z" fill="#2D2E41"/>
<path fill-rule="evenodd" clip-rule="evenodd" d="M283.742 164.5C278.706 170.439 272.542 174.939 265.247 178C252.948 182.81 240.618 185.976 228.259 187.5C222.094 187.5 215.929 187.5 209.764 187.5C204.144 185.871 198.304 184.704 192.244 184C186.138 181.798 179.974 179.798 173.749 178C172.062 176.811 170.44 175.644 168.882 174.5C177.727 178.028 186.813 180.862 196.137 183C220.169 186.881 243.53 184.548 266.221 176C267.501 174.605 267.176 173.605 265.247 173C267.182 172.82 269.129 172.986 271.088 173.5C271.088 172.5 271.088 171.5 271.088 170.5C272.741 170.66 274.364 170.494 275.955 170C278.451 167.92 281.047 166.087 283.742 164.5Z" fill="#2C2D40"/>
<path fill-rule="evenodd" clip-rule="evenodd" d="M87.1179 145.5C90.8681 156.188 97.3569 164.688 106.586 171C117.592 177.38 129.272 181.88 141.627 184.5C139.563 186.018 137.292 187.018 134.814 187.5C134.49 187.5 134.164 187.5 133.84 187.5C127.859 186.51 121.694 186.177 115.346 186.5C115.238 185.883 114.914 185.383 114.373 185C121.186 184.667 128 184.333 134.814 184C124.807 181.185 115.074 177.685 105.612 173.5C104.175 170.435 102.066 169.102 99.2852 169.5C95.9221 164.987 92.6774 160.32 89.5514 155.5C88.1453 152.945 87.0097 150.279 86.1445 147.5C86.1861 146.584 86.5106 145.917 87.1179 145.5Z" fill="#2F2D42"/>
</svg>
